<svg id="Layer_1" data-name="Layer 1" xmlns="http://www.w3.org/2000/svg" viewBox="0 0 529.91 98.75"><defs><style>.cls-1,.cls-2{fill:#fff;}.cls-2{stroke:#fff;stroke-miterlimit:10;stroke-width:2px;}</style></defs><path class="cls-1" d="M368.89,477.57h-2.6l-2-5.29H357l-1.93,5.29h-2.43l6.68-17.39h2.48Zm-5.29-7.12-3.07-8.07-2.91,8.07Z" transform="translate(-352.09 -379.12)"/><path class="cls-1" d="M384,477.87a7.56,7.56,0,0,1-5.89-2.43,10.9,10.9,0,0,1,0-13.13,7.56,7.56,0,0,1,5.89-2.43,7.66,7.66,0,0,1,4.83,1.53,5.61,5.61,0,0,1,2.25,4h-2.38a3.52,3.52,0,0,0-1.43-2.63,5.8,5.8,0,0,0-7.43.85,9.58,9.58,0,0,0,0,10.4,5.75,5.75,0,0,0,7.45.83,3.87,3.87,0,0,0,1.42-2.85h2.38a5.86,5.86,0,0,1-2.19,4.3A7.69,7.69,0,0,1,384,477.87Z" transform="translate(-352.09 -379.12)"/><path class="cls-1" d="M408.3,477.57h-2.6l-2-5.29H396.4l-1.93,5.29H392l6.68-17.39h2.48Zm-5.3-7.12-3.06-8.07L397,470.45Z" transform="translate(-352.09 -379.12)"/><path class="cls-1" d="M422.32,462.24h-5.76v15.33h-2.31V462.24h-5.71v-2.06h13.78Z" transform="translate(-352.09 -379.12)"/><path class="cls-1" d="M438.18,477.57h-2.31v-8.19h-9v8.19h-2.3V460.18h2.3v7.14h9v-7.14h2.31Z" transform="translate(-352.09 -379.12)"/><path class="cls-1" d="M449.34,459.88a7.83,7.83,0,0,1,6,2.47,10.3,10.3,0,0,1,0,13,8.49,8.49,0,0,1-12,0,10.25,10.25,0,0,1,0-13A7.89,7.89,0,0,1,449.34,459.88Zm0,16a5.51,5.51,0,0,0,4.28-1.85,8.9,8.9,0,0,0,0-10.35,5.44,5.44,0,0,0-4.23-1.85,5.55,5.55,0,0,0-4.3,1.85,8.82,8.82,0,0,0,0,10.34A5.49,5.49,0,0,0,449.32,475.9Z" transform="translate(-352.09 -379.12)"/><path class="cls-1" d="M471.2,477.57H460.44V460.18h2.3v15.33h8.46Z" transform="translate(-352.09 -379.12)"/><path class="cls-1" d="M476.29,477.57H474V460.18h2.31Z" transform="translate(-352.09 -379.12)"/><path class="cls-1" d="M487.46,477.87a7.56,7.56,0,0,1-5.89-2.43,10.9,10.9,0,0,1,0-13.13,7.56,7.56,0,0,1,5.89-2.43,7.7,7.7,0,0,1,4.83,1.53,5.57,5.57,0,0,1,2.24,4h-2.37a3.55,3.55,0,0,0-1.43-2.63,5.81,5.81,0,0,0-7.44.85,9.58,9.58,0,0,0,0,10.4,5.14,5.14,0,0,0,4.16,1.83,5.08,5.08,0,0,0,3.29-1,3.88,3.88,0,0,0,1.43-2.85h2.37a5.82,5.82,0,0,1-2.18,4.3A7.69,7.69,0,0,1,487.46,477.87Z" transform="translate(-352.09 -379.12)"/><path class="cls-1" d="M511.25,477.87a8,8,0,0,1-6.08-2.46,10.4,10.4,0,0,1,0-13.08,7.91,7.91,0,0,1,6-2.45,8.62,8.62,0,0,1,5.22,1.51,5.49,5.49,0,0,1,2.34,4.06h-2.39a3.37,3.37,0,0,0-1.52-2.64,6.23,6.23,0,0,0-3.63-1,5.54,5.54,0,0,0-4.34,1.84,7.54,7.54,0,0,0-1.64,5.18,7.45,7.45,0,0,0,1.66,5.18,5.59,5.59,0,0,0,4.35,1.85,6.48,6.48,0,0,0,5.58-2.48v-2.65h-4.59V468.7H519v8.87h-1.62l-.61-1.83Q515,477.87,511.25,477.87Z" transform="translate(-352.09 -379.12)"/><path class="cls-1" d="M529.1,477.87a7.23,7.23,0,0,1-4.53-1.18,5.06,5.06,0,0,1-1.9-2.76,15.59,15.59,0,0,1-.39-3.69V460.18h2.3v10c0,2.29.38,3.79,1.15,4.51a5.8,5.8,0,0,0,6.74,0c.77-.72,1.15-2.22,1.15-4.51v-10h2.31v10.06a10.91,10.91,0,0,1-.75,4.65,4.88,4.88,0,0,1-2.27,2.24A8.71,8.71,0,0,1,529.1,477.87Z" transform="translate(-352.09 -379.12)"/><path class="cls-1" d="M552.53,477.57h-13V460.18h12.56v2.06H541.86v5.32h9.6v2.06h-9.6v5.89h10.67Z" transform="translate(-352.09 -379.12)"/><path class="cls-1" d="M562.06,477.87q-3.67,0-5.5-1.65a5.76,5.76,0,0,1-1.91-4.24h2.21a3.61,3.61,0,0,0,1.62,2.88,6.29,6.29,0,0,0,3.49.93,5.5,5.5,0,0,0,3.11-.79,2.47,2.47,0,0,0,1.18-2.16,2.2,2.2,0,0,0-1.22-2.09,17.75,17.75,0,0,0-4.21-1.29,9.69,9.69,0,0,1-4.28-1.76,3.76,3.76,0,0,1-1.3-3,4.25,4.25,0,0,1,1.69-3.47,7,7,0,0,1,4.49-1.35,7.67,7.67,0,0,1,4.75,1.37,4.81,4.81,0,0,1,1.91,3.85h-2.24q-.35-3.15-4.32-3.15a5.25,5.25,0,0,0-3,.72,2.21,2.21,0,0,0-1.06,1.92,1.84,1.84,0,0,0,.85,1.64,10.94,10.94,0,0,0,3.17,1,30,30,0,0,1,3.68,1,6,6,0,0,1,2.34,1.55,4,4,0,0,1,1,2.82,4.66,4.66,0,0,1-1.78,3.73A7.11,7.11,0,0,1,562.06,477.87Z" transform="translate(-352.09 -379.12)"/><path class="cls-1" d="M583.8,462.24h-5.75v15.33h-2.32V462.24H570v-2.06H583.8Z" transform="translate(-352.09 -379.12)"/><path class="cls-1" d="M599.67,477.57h-2.31v-8.19h-9v8.19H586V460.18h2.3v7.14h9v-7.14h2.31Z" transform="translate(-352.09 -379.12)"/><path class="cls-1" d="M610.83,459.88a7.83,7.83,0,0,1,6,2.47,10.3,10.3,0,0,1,0,13,8.49,8.49,0,0,1-12,0,10.25,10.25,0,0,1,0-13A7.89,7.89,0,0,1,610.83,459.88Zm0,16a5.49,5.49,0,0,0,4.27-1.85,8.87,8.87,0,0,0,0-10.35,5.45,5.45,0,0,0-4.23-1.85,5.58,5.58,0,0,0-4.31,1.85,8.84,8.84,0,0,0,0,10.34A5.46,5.46,0,0,0,610.81,475.9Z" transform="translate(-352.09 -379.12)"/><path class="cls-1" d="M628.75,477.87a7.22,7.22,0,0,1-4.52-1.18,5,5,0,0,1-1.9-2.76,15.05,15.05,0,0,1-.4-3.69V460.18h2.3v10c0,2.29.39,3.79,1.15,4.51a5.8,5.8,0,0,0,6.74,0c.77-.72,1.15-2.22,1.15-4.51v-10h2.32v10.06a10.73,10.73,0,0,1-.76,4.65,4.88,4.88,0,0,1-2.27,2.24A8.71,8.71,0,0,1,628.75,477.87Z" transform="translate(-352.09 -379.12)"/><path class="cls-1" d="M645.77,477.87q-3.67,0-5.5-1.65a5.76,5.76,0,0,1-1.91-4.24h2.22a3.61,3.61,0,0,0,1.62,2.88,6.28,6.28,0,0,0,3.48.93,5.45,5.45,0,0,0,3.11-.79,2.47,2.47,0,0,0,1.18-2.16,2.18,2.18,0,0,0-1.22-2.09,17.48,17.48,0,0,0-4.2-1.29,9.74,9.74,0,0,1-4.29-1.76,3.79,3.79,0,0,1-1.3-3,4.28,4.28,0,0,1,1.69-3.47,7,7,0,0,1,4.49-1.35,7.65,7.65,0,0,1,4.75,1.37,4.81,4.81,0,0,1,1.91,3.85h-2.24q-.34-3.15-4.32-3.15a5.27,5.27,0,0,0-3,.72,2.22,2.22,0,0,0-1,1.92,1.83,1.83,0,0,0,.84,1.64,11.06,11.06,0,0,0,3.17,1,30.2,30.2,0,0,1,3.69,1,5.89,5.89,0,0,1,2.33,1.55,4,4,0,0,1,1,2.82,4.67,4.67,0,0,1-1.79,3.73A7.09,7.09,0,0,1,645.77,477.87Z" transform="translate(-352.09 -379.12)"/><path class="cls-1" d="M668.12,477.57h-13V460.18h12.57v2.06H657.46v5.32h9.59v2.06h-9.59v5.89h10.66Z" transform="translate(-352.09 -379.12)"/><path class="cls-1" d="M689,462.24h-9.44v5.39h8.18v2.06h-8.18v7.88h-2.3V460.18H689Z" transform="translate(-352.09 -379.12)"/><path class="cls-1" d="M699.39,459.88a7.83,7.83,0,0,1,6,2.47,10.3,10.3,0,0,1,0,13,8.49,8.49,0,0,1-12,0,10.25,10.25,0,0,1,0-13A7.89,7.89,0,0,1,699.39,459.88Zm0,16a5.49,5.49,0,0,0,4.27-1.85,8.87,8.87,0,0,0,0-10.35,5.45,5.45,0,0,0-4.23-1.85,5.58,5.58,0,0,0-4.31,1.85,8.84,8.84,0,0,0,0,10.34A5.46,5.46,0,0,0,699.37,475.9Z" transform="translate(-352.09 -379.12)"/><path class="cls-1" d="M725,477.57H722.5l-1.64-4.64a4.27,4.27,0,0,0-1.46-2,3.71,3.71,0,0,0-2.35-.79h-4.26v7.44h-2.3V460.18h7.7a11.55,11.55,0,0,1,3.3.39,3.77,3.77,0,0,1,2.09,1.65,5.11,5.11,0,0,1,.8,2.83,4.44,4.44,0,0,1-1,3,5,5,0,0,1-2.86,1.58v0a4.71,4.71,0,0,1,2.77,3.15Zm-12.2-9.5h5.14a5.53,5.53,0,0,0,3.11-.68,2.64,2.64,0,0,0,1-2.34q0-3-3.72-3h-5.5Z" transform="translate(-352.09 -379.12)"/><path class="cls-1" d="M746.32,462.24h-5.75v15.33h-2.31V462.24h-5.71v-2.06h13.77Z" transform="translate(-352.09 -379.12)"/><path class="cls-1" d="M763,477.57h-2.5l-1.63-4.64a4.34,4.34,0,0,0-1.46-2,3.73,3.73,0,0,0-2.35-.79h-4.26v7.44h-2.3V460.18h7.7a11.64,11.64,0,0,1,3.3.39,3.72,3.72,0,0,1,2.08,1.65,5.11,5.11,0,0,1,.81,2.83,4.49,4.49,0,0,1-1,3,5,5,0,0,1-2.86,1.58v0a4.67,4.67,0,0,1,2.76,3.15Zm-12.2-9.5H756a5.53,5.53,0,0,0,3.11-.68,2.67,2.67,0,0,0,1-2.34c0-2-1.25-3-3.73-3h-5.49Z" transform="translate(-352.09 -379.12)"/><path class="cls-1" d="M780.1,477.57h-2.6l-2-5.29H768.2l-1.92,5.29h-2.43l6.68-17.39H773Zm-5.29-7.12-3.06-8.07-2.92,8.07Z" transform="translate(-352.09 -379.12)"/><path class="cls-1" d="M795.85,460.18l-6.76,17.39h-2.37L780,460.18h2.45l5.49,14.91,5.5-14.91Z" transform="translate(-352.09 -379.12)"/><path class="cls-1" d="M810.67,477.57h-13V460.18h12.56v2.06H800v5.32h9.6v2.06H800v5.89h10.67Z" transform="translate(-352.09 -379.12)"/><path class="cls-1" d="M824.4,477.57H813.64V460.18h2.3v15.33h8.46Z" transform="translate(-352.09 -379.12)"/><path class="cls-1" d="M839.86,477.57h-13V460.18h12.56v2.06H829.19v5.32h9.6v2.06h-9.6v5.89h10.67Z" transform="translate(-352.09 -379.12)"/><path class="cls-1" d="M857.33,477.57h-2.5l-1.63-4.64a4.34,4.34,0,0,0-1.46-2,3.73,3.73,0,0,0-2.35-.79h-4.26v7.44h-2.3V460.18h7.7a11.64,11.64,0,0,1,3.3.39,3.72,3.72,0,0,1,2.08,1.65,5.11,5.11,0,0,1,.81,2.83,4.49,4.49,0,0,1-1,3,5,5,0,0,1-2.86,1.58v0a4.67,4.67,0,0,1,2.76,3.15Zm-12.2-9.5h5.14a5.53,5.53,0,0,0,3.11-.68,2.64,2.64,0,0,0,1-2.34q0-3-3.73-3h-5.49Z" transform="translate(-352.09 -379.12)"/><path class="cls-1" d="M866.67,477.87c-2.45,0-4.29-.55-5.5-1.65a5.8,5.8,0,0,1-1.92-4.24h2.22a3.61,3.61,0,0,0,1.62,2.88,6.28,6.28,0,0,0,3.48.93,5.51,5.51,0,0,0,3.12-.79,2.47,2.47,0,0,0,1.18-2.16,2.2,2.2,0,0,0-1.22-2.09,17.75,17.75,0,0,0-4.21-1.29,9.64,9.64,0,0,1-4.28-1.76,3.76,3.76,0,0,1-1.3-3,4.25,4.25,0,0,1,1.69-3.47,7,7,0,0,1,4.49-1.35,7.69,7.69,0,0,1,4.75,1.37,4.81,4.81,0,0,1,1.91,3.85h-2.25c-.23-2.1-1.66-3.15-4.31-3.15a5.23,5.23,0,0,0-3,.72,2.21,2.21,0,0,0-1.06,1.92,1.82,1.82,0,0,0,.85,1.64,10.94,10.94,0,0,0,3.17,1,30.48,30.48,0,0,1,3.68,1,6,6,0,0,1,2.34,1.55,4,4,0,0,1,1,2.82,4.66,4.66,0,0,1-1.78,3.73A7.11,7.11,0,0,1,866.67,477.87Z" transform="translate(-352.09 -379.12)"/><line class="cls-2" x1="5.91" y1="63.88" x2="529.91" y2="63.88"/><path class="cls-1" d="M365.52,380q4.62.16,7.56.17t7.59-.17c3.09-.12,5.58-.2,7.45-.24a23,23,0,0,0,4.71-.68l1.3,10.45a2.62,2.62,0,0,1-1.84.48c-.37,0-.6-.11-.69-.34q-1-3.75-2.53-5.09a7.51,7.51,0,0,0-4.92-1.33c-4.24,0-6.45.38-6.63,1.16a23.88,23.88,0,0,0-.61,6.42v24.68a23.42,23.42,0,0,0,.61,5.95c.05.32.66.65,1.85,1a10.88,10.88,0,0,0,2.39.51q.27,0,.27,1.23a3.67,3.67,0,0,1-.13,1.1l-2.64-.21c-1.16-.09-2.23-.16-3.21-.2s-1.92-.07-2.84-.07c-1.23,0-2.92.07-5.09.2s-3.5.23-4,.28a1.63,1.63,0,0,1-.27-1.1q0-1.23.27-1.23a11,11,0,0,0,2.57-.48c1.16-.31,1.81-.66,1.94-1a21.34,21.34,0,0,0,.55-5.68V391.08q0-5.67-.61-6.63c-.37-.78-2.53-1.16-6.5-1.16a7.51,7.51,0,0,0-4.92,1.33c-1,.89-1.91,2.56-2.6,5,0,.28-.27.41-.68.41a2.32,2.32,0,0,1-1.78-.54l1.3-10.39a23.15,23.15,0,0,0,4.72.68Q360.92,379.86,365.52,380Z" transform="translate(-352.09 -379.12)"/><path class="cls-1" d="M443.32,423c.18,0,.27.44.27,1.3a3.08,3.08,0,0,1-.14,1c-5.46-.28-8.36-.41-8.68-.41-.91,0-1.87,0-2.87.07s-2.11.1-3.31.17l-2.91.17a1.34,1.34,0,0,1-.27-1c0-.86.09-1.3.27-1.3a10.83,10.83,0,0,0,2.56-.48c1.17-.31,1.82-.66,1.95-1a23.62,23.62,0,0,0,.55-5.74V404l-.14-.28q-6.42-.14-9-.13-9.43.14-9.43.34v11.42a25.44,25.44,0,0,0,.61,6.15c.09.32.72.65,1.88,1A10.51,10.51,0,0,0,417,423c.18,0,.27.44.27,1.3a3.1,3.1,0,0,1-.13,1c-5.47-.28-8.37-.41-8.69-.41-.91,0-1.87,0-2.87.07s-2.11.1-3.31.17l-2.91.17a1.34,1.34,0,0,1-.27-1c0-.86.09-1.3.27-1.3a11,11,0,0,0,2.57-.48c1.16-.31,1.81-.66,1.94-1a23.62,23.62,0,0,0,.55-5.74V389.37a20.27,20.27,0,0,0-.55-5.74c-.18-.37-.82-.72-1.91-1.06a9.28,9.28,0,0,0-2.46-.52q-.27,0-.27-1a2.82,2.82,0,0,1,.13-1.23c.23,0,1.49.07,3.8.2s4.06.21,5.29.21q.56,0,8.75-.41a3.41,3.41,0,0,1,.21,1.09c0,.78-.09,1.16-.27,1.16a11.65,11.65,0,0,0-2.47.55c-1.23.37-1.89.71-2,1a25.65,25.65,0,0,0-.54,6v10l.13.21q6.71.14,9.3.13,2.87,0,9-.13a.4.4,0,0,0,.14-.28V389.37a20.27,20.27,0,0,0-.55-5.74c-.18-.37-.82-.72-1.91-1.06a9.43,9.43,0,0,0-2.46-.52c-.19,0-.28-.34-.28-1a2.74,2.74,0,0,1,.14-1.23c.23,0,1.49.07,3.79.2s4.07.21,5.3.21c.37,0,3.28-.14,8.75-.41a3.41,3.41,0,0,1,.21,1.09c0,.78-.09,1.16-.28,1.16a11.48,11.48,0,0,0-2.46.55c-1.23.37-1.89.71-2,1a25.56,25.56,0,0,0-.55,6v25.71a25.38,25.38,0,0,0,.62,6.15c.09.32.72.65,1.88,1A10.51,10.51,0,0,0,443.32,423Z" transform="translate(-352.09 -379.12)"/><path class="cls-1" d="M458.25,380.14q3,0,10.6-.24t11.48-.24c.19,1.37.55,3.27,1.1,5.71s.84,3.77.89,4a2.12,2.12,0,0,1-1.44.34.93.93,0,0,1-1-.48,8.59,8.59,0,0,0-8.75-6.08h-3.55c-3.37,0-5.11.3-5.2.89a28.4,28.4,0,0,0-.41,5.53v10.74c0,.27,1,.41,3,.41h3.83a17.89,17.89,0,0,0,4.72-.34c.5-.23.89-1,1.16-2.4.14-.68.27-1.25.41-1.71,0-.31.41-.48,1.09-.48a1.84,1.84,0,0,1,1.3.35v12.92a2,2,0,0,1-1.3.27c-.59,0-1-.18-1.09-.55a21.18,21.18,0,0,0-.86-2.73,4.81,4.81,0,0,0-.47-1l-.59-.41c-.59-.36-2.68-.55-6.28-.55-3.29,0-4.93.19-4.93.55v10.6a18.18,18.18,0,0,0,.62,5.53c.23.6,1.78.89,4.65.89h2.53q5.32,0,8.13-1.43a7.87,7.87,0,0,0,2.46-2.39,14.64,14.64,0,0,0,2.12-4.17q.08-.42,1-.42a2.87,2.87,0,0,1,1.91.42c-.13.41-.47,1.34-1,2.8s-.92,2.56-1.19,3.31-.58,1.68-.89,2.77a18.81,18.81,0,0,0-.62,2.67q-2.73,0-11.31-.21T458.32,425l-9.09.28c-.14-.14-.2-.5-.2-1.1,0-.77.06-1.16.2-1.16a11.64,11.64,0,0,0,2.6-.44c1.14-.3,1.8-.65,2-1.06a24.7,24.7,0,0,0,.48-6.22V389.44a21.55,21.55,0,0,0-.48-5.61c-.14-.5-.77-.91-1.91-1.23a10.71,10.71,0,0,0-2.74-.48q-.27,0-.27-1a1.87,1.87,0,0,1,.27-1.23Q453.68,380.14,458.25,380.14Z" transform="translate(-352.09 -379.12)"/><path class="cls-1" d="M519.16,389.64v25.71a20,20,0,0,0,.62,5.46c.23.6,1.78.89,4.65.89H527q5.32,0,8.13-1.43a7.87,7.87,0,0,0,2.46-2.39,14.64,14.64,0,0,0,2.12-4.17c.05-.28.36-.42,1-.42a2.87,2.87,0,0,1,1.91.42c-.14.41-.47,1.34-1,2.8s-.92,2.56-1.2,3.31-.57,1.68-.88,2.77a18.81,18.81,0,0,0-.62,2.67q-2.73,0-11.31-.21T515.47,425l-9.09.28a1.77,1.77,0,0,1-.21-1.1c0-.77.07-1.16.21-1.16a11.64,11.64,0,0,0,2.6-.44c1.14-.3,1.8-.65,2-1.06a24.7,24.7,0,0,0,.48-6.22V389.44a20.66,20.66,0,0,0-.55-5.81c-.18-.37-.82-.72-1.91-1.06a9.43,9.43,0,0,0-2.46-.52c-.19,0-.28-.34-.28-1a2.74,2.74,0,0,1,.14-1.23c.23,0,1.49.07,3.79.2s4.07.21,5.3.21c.37,0,3.28-.14,8.75-.41a3.41,3.41,0,0,1,.21,1.09c0,.78-.1,1.16-.28,1.16a11.48,11.48,0,0,0-2.46.55c-1.23.37-1.89.71-2,1A25,25,0,0,0,519.16,389.64Z" transform="translate(-352.09 -379.12)"/><path class="cls-1" d="M556.79,380.14q3,0,10.6-.24t11.49-.24q.27,2.05,1.09,5.71c.55,2.44.84,3.77.89,4a2.12,2.12,0,0,1-1.44.34.93.93,0,0,1-1-.48,8.59,8.59,0,0,0-8.75-6.08h-3.55q-5.05,0-5.2.89a28.4,28.4,0,0,0-.41,5.53v10.74c0,.27,1,.41,3,.41h3.83a17.83,17.83,0,0,0,4.72-.34c.5-.23.89-1,1.16-2.4.14-.68.27-1.25.41-1.71,0-.31.41-.48,1.09-.48a1.84,1.84,0,0,1,1.3.35v12.92a2,2,0,0,1-1.3.27c-.59,0-.95-.18-1.09-.55a21.5,21.5,0,0,0-.85-2.73,4.54,4.54,0,0,0-.48-1c-.07,0-.27-.18-.58-.41-.6-.36-2.69-.55-6.29-.55-3.28,0-4.93.19-4.93.55v10.6a18.18,18.18,0,0,0,.62,5.53c.23.6,1.78.89,4.65.89h2.53q5.32,0,8.13-1.43a7.87,7.87,0,0,0,2.46-2.39,14.64,14.64,0,0,0,2.12-4.17q.08-.42,1-.42a2.87,2.87,0,0,1,1.91.42c-.13.41-.46,1.34-1,2.8s-.92,2.56-1.19,3.31-.57,1.68-.89,2.77a18.81,18.81,0,0,0-.62,2.67q-2.73,0-11.31-.21T556.86,425l-9.09.28c-.14-.14-.2-.5-.2-1.1,0-.77.06-1.16.2-1.16a11.64,11.64,0,0,0,2.6-.44c1.14-.3,1.8-.65,2-1.06a24.7,24.7,0,0,0,.48-6.22V389.44a21.55,21.55,0,0,0-.48-5.61c-.14-.5-.77-.91-1.91-1.23a10.71,10.71,0,0,0-2.74-.48q-.27,0-.27-1a1.87,1.87,0,0,1,.27-1.23Q552.22,380.14,556.79,380.14Z" transform="translate(-352.09 -379.12)"/><path class="cls-1" d="M595.25,419a24,24,0,0,1,0-32.71,21,21,0,0,1,30.93,0,23.93,23.93,0,0,1,0,32.71,21,21,0,0,1-30.93,0Zm14.42-36.16a9.85,9.85,0,0,0-9,5.36,25.48,25.48,0,0,0-3.11,13,33.84,33.84,0,0,0,1.4,9.77,19.09,19.09,0,0,0,4.75,8,11,11,0,0,0,8.07,3.39q5.81,0,9-5.44A25.19,25.19,0,0,0,624,403.93a34.69,34.69,0,0,0-1.37-9.88,18.23,18.23,0,0,0-4.72-7.93A11.19,11.19,0,0,0,609.67,382.81Z" transform="translate(-352.09 -379.12)"/><path class="cls-1" d="M697.72,423c.18,0,.27.44.27,1.3a3.1,3.1,0,0,1-.13,1c-5.47-.28-8.37-.41-8.69-.41-.91,0-1.87,0-2.87.07s-2.11.1-3.31.17l-2.91.17a1.34,1.34,0,0,1-.27-1c0-.86.09-1.3.27-1.3a11,11,0,0,0,2.57-.48c1.16-.31,1.81-.66,1.94-1a23.62,23.62,0,0,0,.55-5.74V404l-.14-.28q-6.42-.14-9-.13-9.43.14-9.43.34v11.42a25.44,25.44,0,0,0,.61,6.15c.09.32.72.65,1.88,1a10.51,10.51,0,0,0,2.36.51c.18,0,.27.44.27,1.3a3.1,3.1,0,0,1-.13,1c-5.47-.28-8.37-.41-8.68-.41-.92,0-1.87,0-2.88.07s-2.1.1-3.31.17l-2.91.17a1.34,1.34,0,0,1-.27-1c0-.86.09-1.3.27-1.3a10.89,10.89,0,0,0,2.57-.48c1.16-.31,1.81-.66,1.95-1a24.21,24.21,0,0,0,.54-5.74V389.37a20.76,20.76,0,0,0-.54-5.74c-.19-.37-.82-.72-1.92-1.06a9.28,9.28,0,0,0-2.46-.52q-.27,0-.27-1a2.82,2.82,0,0,1,.13-1.23c.23,0,1.5.07,3.8.2s4.06.21,5.3.21q.54,0,8.75-.41a3.67,3.67,0,0,1,.2,1.09c0,.78-.09,1.16-.27,1.16a11.48,11.48,0,0,0-2.46.55c-1.23.37-1.9.71-2,1a25.65,25.65,0,0,0-.54,6v10l.13.21q6.71.14,9.3.13,2.87,0,9-.13a.4.4,0,0,0,.14-.28V389.37a20.27,20.27,0,0,0-.55-5.74c-.18-.37-.82-.72-1.91-1.06a9.28,9.28,0,0,0-2.46-.52q-.27,0-.27-1a2.82,2.82,0,0,1,.13-1.23c.23,0,1.49.07,3.8.2s4.06.21,5.29.21q.55,0,8.75-.41a3.41,3.41,0,0,1,.21,1.09c0,.78-.09,1.16-.27,1.16a11.53,11.53,0,0,0-2.47.55c-1.23.37-1.89.71-2,1a25.65,25.65,0,0,0-.54,6v25.71a25.44,25.44,0,0,0,.61,6.15c.09.32.72.65,1.88,1A10.51,10.51,0,0,0,697.72,423Z" transform="translate(-352.09 -379.12)"/><path class="cls-1" d="M709.72,419a24,24,0,0,1,0-32.71,21,21,0,0,1,30.93,0,23.93,23.93,0,0,1,0,32.71,21,21,0,0,1-30.93,0Zm14.42-36.16a9.85,9.85,0,0,0-9,5.36,25.48,25.48,0,0,0-3.11,13,33.84,33.84,0,0,0,1.4,9.77,19.09,19.09,0,0,0,4.75,8,10.92,10.92,0,0,0,8.07,3.39q5.81,0,9-5.44a25.19,25.19,0,0,0,3.18-12.95,34.69,34.69,0,0,0-1.37-9.88,18.23,18.23,0,0,0-4.72-7.93A11.19,11.19,0,0,0,724.14,382.81Z" transform="translate(-352.09 -379.12)"/><path class="cls-1" d="M761.36,380.21q1.23,0,8.75-.41a4.53,4.53,0,0,1,.14,1.09c0,.78-.09,1.16-.28,1.16a12.08,12.08,0,0,0-2.46.52c-1.23.34-1.87.69-1.91,1.06a24.53,24.53,0,0,0-.55,6v15.73q0,7,3.05,11.24a9.83,9.83,0,0,0,8.44,4.2,10.92,10.92,0,0,0,8.44-3.45q3.18-3.45,3.18-11.45V389.23q0-4.17-.69-5.47a4.71,4.71,0,0,0-2.42-1.19,12.05,12.05,0,0,0-2.91-.58q-.27,0-.3-1a2.12,2.12,0,0,1,.17-1.23q7.38.48,8.61.48c1.14,0,2.65-.08,4.55-.24s3.06-.24,3.52-.24a4,4,0,0,1,.13,1.09c0,.73-.09,1.1-.27,1.1a13.16,13.16,0,0,0-2.94.51,4.46,4.46,0,0,0-2.6,1.4,15.34,15.34,0,0,0-.75,5.67v16.07a28.81,28.81,0,0,1-1.3,9.19,14.23,14.23,0,0,1-3.69,6.09,14.94,14.94,0,0,1-5.43,3.24,21.55,21.55,0,0,1-6.94,1q-8.21,0-12.92-5t-4.72-16v-14.9a18.62,18.62,0,0,0-.55-5.74c-.18-.37-.82-.72-1.91-1.06a9.35,9.35,0,0,0-2.46-.52c-.18,0-.28-.34-.28-1a2.11,2.11,0,0,1,.21-1.23Q761,380.21,761.36,380.21Z" transform="translate(-352.09 -379.12)"/><path class="cls-1" d="M804.6,391.56a10.79,10.79,0,0,1,4.31-8.65,14.9,14.9,0,0,1,9.7-3.52,25,25,0,0,1,3.35.2c1,.14,2.29.43,4,.86s2.88.72,3.52.85a60.69,60.69,0,0,1,.82,10.53.74.74,0,0,1-.82.62c-1.23,0-1.89-.21-2-.62a11.91,11.91,0,0,0-2.94-6.15,7.76,7.76,0,0,0-6.15-3,6.29,6.29,0,0,0-4.82,1.78,6.67,6.67,0,0,0-1.68,4.78,7.66,7.66,0,0,0,.24,1.95,4.76,4.76,0,0,0,1,1.81c.48.59.87,1.09,1.16,1.47a8.23,8.23,0,0,0,1.71,1.47q1.26.88,1.71,1.23c.3.23,1,.67,2,1.34a19.69,19.69,0,0,0,2,1.12,24.41,24.41,0,0,0,2.29,1.47c1.25.75,2.13,1.3,2.63,1.64s1.23.93,2.19,1.75a9.64,9.64,0,0,1,2.08,2.32,13.8,13.8,0,0,1,1.2,2.77,11.63,11.63,0,0,1,.55,3.59,11.1,11.1,0,0,1-4.41,9A15.82,15.82,0,0,1,818,425.74a63.36,63.36,0,0,1-12.58-1.92,59.29,59.29,0,0,1-1.13-6.18,46.89,46.89,0,0,1-.51-4.89c0-.37.41-.55,1.09-.55,1.19,0,1.85.18,2,.55a13.53,13.53,0,0,0,.95,2.7,19.82,19.82,0,0,0,1.88,3.14,9,9,0,0,0,3.22,2.74,9.65,9.65,0,0,0,4.54,1.06,7.63,7.63,0,0,0,5.33-1.92c1.42-1.27,2.12-3.19,2.12-5.74a6.1,6.1,0,0,0-.44-2.26,8,8,0,0,0-1-1.84,9.72,9.72,0,0,0-1.71-1.64c-.75-.59-1.38-1.05-1.88-1.37s-1.24-.76-2.22-1.33l-2.08-1.2a5.63,5.63,0,0,0-.75-.55c-1.33-.82-2.33-1.45-3-1.91a30.71,30.71,0,0,1-2.63-2,13.27,13.27,0,0,1-2.43-2.49,12.8,12.8,0,0,1-1.47-2.87A10.37,10.37,0,0,1,804.6,391.56Z" transform="translate(-352.09 -379.12)"/><path class="cls-1" d="M847,380.14c2,0,5.54-.08,10.59-.24s8.89-.24,11.49-.24c.18,1.37.55,3.27,1.09,5.71s.84,3.77.89,4a2.11,2.11,0,0,1-1.43.34q-.76,0-1-.48a8.59,8.59,0,0,0-8.75-6.08h-3.56q-5.05,0-5.19.89a27.62,27.62,0,0,0-.41,5.53v10.74c0,.27,1,.41,3,.41h3.82a17.78,17.78,0,0,0,4.72-.34c.5-.23.89-1,1.16-2.4.14-.68.28-1.25.41-1.71,0-.31.41-.48,1.1-.48a1.86,1.86,0,0,1,1.3.35v12.92a2.06,2.06,0,0,1-1.3.27c-.6,0-1-.18-1.1-.55a21.5,21.5,0,0,0-.85-2.73,4.05,4.05,0,0,0-.48-1l-.58-.41c-.59-.36-2.69-.55-6.29-.55-3.28,0-4.92.19-4.92.55v10.6a18.25,18.25,0,0,0,.61,5.53c.23.6,1.78.89,4.65.89h2.53q5.34,0,8.14-1.43a8.09,8.09,0,0,0,2.46-2.39,14.9,14.9,0,0,0,2.12-4.17c0-.28.36-.42.95-.42a2.92,2.92,0,0,1,1.92.42c-.14.41-.47,1.34-1,2.8l-1.2,3.31c-.27.76-.57,1.68-.89,2.77a18.55,18.55,0,0,0-.61,2.67q-2.74,0-11.32-.21T847,425l-9.1.28a1.86,1.86,0,0,1-.2-1.1c0-.77.07-1.16.2-1.16a11.55,11.55,0,0,0,2.6-.44c1.14-.3,1.8-.65,2-1.06a24.7,24.7,0,0,0,.48-6.22V389.44a21.55,21.55,0,0,0-.48-5.61c-.13-.5-.77-.91-1.91-1.23a10.71,10.71,0,0,0-2.73-.48c-.19,0-.28-.34-.28-1a1.8,1.8,0,0,1,.28-1.23Q842.36,380.14,847,380.14Z" transform="translate(-352.09 -379.12)"/></svg>